<?xml version="1.0" encoding="UTF-8" standalone="no"?>
<svg
   xmlns:dc="http://purl.org/dc/elements/1.1/"
   xmlns:cc="http://creativecommons.org/ns#"
   xmlns:rdf="http://www.w3.org/1999/02/22-rdf-syntax-ns#"
   xmlns:svg="http://www.w3.org/2000/svg"
   xmlns="http://www.w3.org/2000/svg"
   xmlns:sodipodi="http://sodipodi.sourceforge.net/DTD/sodipodi-0.dtd"
   xmlns:inkscape="http://www.inkscape.org/namespaces/inkscape"
   version="1.1"
   viewBox="0 0 147.00001 244"
   stroke-miterlimit="10"
   id="svg3048"
   inkscape:version="0.48.4 r9939"
   width="100%"
   height="100%"
   sodipodi:docname="DefaultScreenIcon.svg"
   style="fill:none;stroke:none">
  <metadata
     id="metadata3071">
    <rdf:RDF>
      <cc:Work
         rdf:about="">
        <dc:format>image/svg+xml</dc:format>
        <dc:type
           rdf:resource="http://purl.org/dc/dcmitype/StillImage" />
      </cc:Work>
    </rdf:RDF>
  </metadata>
  <defs
     id="defs3069" />
  <sodipodi:namedview
     pagecolor="#ffffff"
     bordercolor="#666666"
     borderopacity="1"
     objecttolerance="10"
     gridtolerance="10"
     guidetolerance="10"
     inkscape:pageopacity="0"
     inkscape:pageshadow="2"
     inkscape:window-width="1680"
     inkscape:window-height="1026"
     id="namedview3067"
     showgrid="false"
     fit-margin-top="0"
     fit-margin-left="0"
     fit-margin-right="0"
     fit-margin-bottom="0"
     inkscape:zoom="3.1847826"
     inkscape:cx="73.125009"
     inkscape:cy="108.37664"
     inkscape:window-x="0"
     inkscape:window-y="24"
     inkscape:window-maximized="1"
     inkscape:current-layer="svg3048" />
  <clipPath
     id="p.0">
    <path
       d="M 0,0 199,0 199,276 0,276 0,0 z"
       clip-rule="nonzero"
       id="path3051"
       inkscape:connector-curvature="0" />
  </clipPath>
  <path
     style="fill:#000000;fill-opacity:0;fill-rule:nonzero"
     inkscape:connector-curvature="0"
     id="path3055"
     d="m -26.374991,-16.1875 199.732281,0 0,276.3727 -199.732281,0 z" />
  <path
     style="fill:#434343;fill-rule:nonzero"
     inkscape:connector-curvature="0"
     id="path3057"
     d="m 0.9910813,25.160145 0,0 c 0,-13.347218 10.8200587,-24.167274 24.1672757,-24.167274 l 96.666213,0 0,0 c 6.40956,0 12.55659,2.546186 17.08884,7.07843 4.53224,4.532244 7.07843,10.679287 7.07843,17.088844 l 0,193.677245 c 0,13.34722 -10.82006,24.16729 -24.16727,24.16729 l -96.666213,0 c -13.347218,0 -24.1672757,-10.82007 -24.1672757,-24.16728 z" />
  <path
     style="stroke:#000000;stroke-width:2;stroke-linecap:butt;stroke-linejoin:round"
     inkscape:connector-curvature="0"
     id="path3059"
     d="m 0.9910813,25.160145 0,0 c 0,-13.347218 10.8200587,-24.167274 24.1672757,-24.167274 l 96.666213,0 0,0 c 6.40956,0 12.55659,2.546186 17.08884,7.07843 4.53224,4.532244 7.07843,10.679287 7.07843,17.088844 l 0,193.677245 c 0,13.34722 -10.82006,24.16729 -24.16727,24.16729 l -96.666213,0 c -13.347218,0 -24.1672757,-10.82007 -24.1672757,-24.16728 z" />
  <path
     style="fill:#d9d9d9;fill-rule:nonzero"
     inkscape:connector-curvature="0"
     id="path3061"
     d="m 0.9910813,21.06137 145.0007487,0 0,201.8562 -145.0007487,0 z" />
  <path
     style="stroke:#000000;stroke-width:2;stroke-linecap:butt;stroke-linejoin:round"
     inkscape:connector-curvature="0"
     id="path3063"
     d="m 0.9910813,21.06137 145.0007487,0 0,201.8562 -145.0007487,0 z" />
  <path
     style="fill:#000000;fill-rule:nonzero"
     inkscape:connector-curvature="0"
     id="path3065"
     d="m 10.850454,124.53447 1.6875,-0.14063 q 0.125,1.01563 0.5625,1.67188 0.4375,0.65625 1.359375,1.0625 0.9375,0.40625 2.09375,0.40625 1.03125,0 1.8125,-0.3125 0.796875,-0.3125 1.1875,-0.84375 0.390625,-0.53125 0.390625,-1.15625 0,-0.64063 -0.375,-1.10938 -0.375,-0.48437 -1.234375,-0.8125 -0.546875,-0.21875 -2.421875,-0.65625 -1.875,-0.45312 -2.625,-0.85937 -0.96875,-0.51563 -1.453125,-1.26563 -0.46875,-0.75 -0.46875,-1.6875 0,-1.03125 0.578125,-1.92187 0.59375,-0.90625 1.703125,-1.35938 1.125,-0.46875 2.5,-0.46875 1.515625,0 2.671875,0.48438 1.15625,0.48437 1.765625,1.4375 0.625,0.9375 0.671875,2.14062 l -1.71875,0.125 q -0.140625,-1.28125 -0.953125,-1.9375 -0.796875,-0.67187 -2.359375,-0.67187 -1.625,0 -2.375,0.60937 -0.75,0.59375 -0.75,1.4375 0,0.73438 0.53125,1.20313 0.515625,0.46875 2.703125,0.96875 2.203125,0.5 3.015625,0.875 1.1875,0.54687 1.75,1.39062 0.578125,0.82813 0.578125,1.92188 0,1.09375 -0.625,2.0625 -0.625,0.95312 -1.796875,1.48437 -1.15625,0.53125 -2.609375,0.53125 -1.84375,0 -3.09375,-0.53125 -1.25,-0.54687 -1.96875,-1.625 -0.703125,-1.07812 -0.734375,-2.45312 z m 19.271698,0.76562 1.640625,0.21875 q -0.265625,1.6875 -1.375,2.65625 -1.109375,0.95313 -2.734375,0.95313 -2.015625,0 -3.25,-1.3125 -1.21875,-1.32813 -1.21875,-3.79688 0,-1.59375 0.515625,-2.78125 0.53125,-1.20312 1.609375,-1.79687 1.09375,-0.60938 2.359375,-0.60938 1.609375,0 2.625,0.8125 1.015625,0.8125 1.3125,2.3125 l -1.625,0.25 q -0.234375,-1 -0.828125,-1.5 -0.59375,-0.5 -1.421875,-0.5 -1.265625,0 -2.0625,0.90625 -0.78125,0.90625 -0.78125,2.85938 0,1.98437 0.765625,2.89062 0.765625,0.89063 1.984375,0.89063 0.984375,0 1.640625,-0.59375 0.65625,-0.60938 0.84375,-1.85938 z m 2.875,3.60938 0,-9.85938 1.5,0 0,1.5 q 0.578125,-1.04687 1.0625,-1.375 0.484375,-0.34375 1.078125,-0.34375 0.84375,0 1.718754,0.54688 l -0.578125,1.54687 q -0.609379,-0.35937 -1.234379,-0.35937 -0.546875,0 -0.984375,0.32812 -0.421875,0.32813 -0.609375,0.90625 -0.28125,0.89063 -0.28125,1.95313 l 0,5.15625 -1.671875,0 z m 12.978306,-3.17188 1.71875,0.21875 q -0.40625,1.5 -1.515625,2.34375 -1.09375,0.82813 -2.8125,0.82813 -2.15625,0 -3.421875,-1.32813 -1.265625,-1.32812 -1.265625,-3.73437 0,-2.48438 1.265625,-3.85938 1.28125,-1.375 3.328125,-1.375 1.984375,0 3.234375,1.34375 1.25,1.34375 1.25,3.79688 0,0.14062 -0.01563,0.4375 l -7.34375,0 q 0.09375,1.625 0.921875,2.48437 0.828125,0.85938 2.0625,0.85938 0.90625,0 1.546875,-0.46875 0.65625,-0.48438 1.046875,-1.54688 z m -5.484375,-2.70312 5.5,0 q -0.109375,-1.23438 -0.625,-1.85938 -0.796875,-0.96875 -2.078125,-0.96875 -1.140625,0 -1.9375,0.78125 -0.78125,0.76563 -0.859375,2.04688 z m 15.860092,2.70312 1.71875,0.21875 q -0.40625,1.5 -1.515625,2.34375 -1.09375,0.82813 -2.8125,0.82813 -2.15625,0 -3.421875,-1.32813 -1.265625,-1.32812 -1.265625,-3.73437 0,-2.48438 1.265625,-3.85938 1.28125,-1.375 3.328125,-1.375 1.984375,0 3.234375,1.34375 1.25,1.34375 1.25,3.79688 0,0.14062 -0.01563,0.4375 l -7.34375,0 q 0.09375,1.625 0.921875,2.48437 0.828125,0.85938 2.0625,0.85938 0.90625,0 1.546875,-0.46875 0.65625,-0.48438 1.046875,-1.54688 z m -5.484375,-2.70312 5.5,0 q -0.109375,-1.23438 -0.625,-1.85938 -0.796875,-0.96875 -2.078125,-0.96875 -1.140625,0 -1.9375,0.78125 -0.78125,0.76563 -0.859375,2.04688 z m 9.110092,5.875 0,-9.85938 1.5,0 0,1.40625 q 1.09375,-1.625 3.140625,-1.625 0.890625,0 1.640625,0.32813 0.75,0.3125 1.109375,0.84375 0.375,0.51562 0.53125,1.21875 0.09375,0.46875 0.09375,1.625 l 0,6.0625 -1.671875,0 0,-6 q 0,-1.01563 -0.203125,-1.51563 -0.1875,-0.51562 -0.6875,-0.8125 -0.5,-0.29687 -1.171875,-0.29687 -1.0625,0 -1.84375,0.67187 -0.765625,0.67188 -0.765625,2.57813 l 0,5.375 -1.671875,0 z" />
</svg>
